<mxfile host="app.diagrams.net" modified="2020-11-02T13:32:01.557Z" agent="5.0 (Windows NT 10.0; Win64; x64) AppleWebKit/537.36 (KHTML, like Gecko) Chrome/86.0.4240.111 Safari/537.36 Edg/86.0.622.58" etag="R60HHU-EDTJxPYj-JrMG" version="13.8.8" type="github">
  <diagram name="Page-1" id="929967ad-93f9-6ef4-fab6-5d389245f69c">
    <mxGraphModel dx="2370" dy="1333" grid="1" gridSize="10" guides="1" tooltips="1" connect="1" arrows="1" fold="1" page="1" pageScale="1.5" pageWidth="1169" pageHeight="826" background="none" math="0" shadow="0">
      <root>
        <mxCell id="0" style=";html=1;" />
        <mxCell id="1" style=";html=1;" parent="0" />
        <mxCell id="3rXDstgyWlfkzFN-V7EH-1" value="" style="rounded=0;whiteSpace=wrap;html=1;" vertex="1" parent="1">
          <mxGeometry x="160" y="240" width="380" height="460" as="geometry" />
        </mxCell>
        <mxCell id="3rXDstgyWlfkzFN-V7EH-2" value="" style="rounded=0;whiteSpace=wrap;html=1;" vertex="1" parent="1">
          <mxGeometry x="1090" y="590" width="360" height="450" as="geometry" />
        </mxCell>
        <mxCell id="3rXDstgyWlfkzFN-V7EH-3" value="" style="shape=flexArrow;endArrow=classic;startArrow=classic;html=1;exitX=1.009;exitY=0.711;exitDx=0;exitDy=0;exitPerimeter=0;" edge="1" parent="1" source="3rXDstgyWlfkzFN-V7EH-1" target="3rXDstgyWlfkzFN-V7EH-2">
          <mxGeometry width="50" height="50" relative="1" as="geometry">
            <mxPoint x="870" y="680" as="sourcePoint" />
            <mxPoint x="1070" y="580" as="targetPoint" />
          </mxGeometry>
        </mxCell>
        <mxCell id="3rXDstgyWlfkzFN-V7EH-4" value="&lt;font style=&quot;font-size: 20px&quot;&gt;Client&lt;/font&gt;" style="text;html=1;strokeColor=none;fillColor=none;align=center;verticalAlign=middle;whiteSpace=wrap;rounded=0;" vertex="1" parent="1">
          <mxGeometry x="250" y="720" width="180" height="60" as="geometry" />
        </mxCell>
        <mxCell id="3rXDstgyWlfkzFN-V7EH-5" value="&lt;font style=&quot;font-size: 20px&quot;&gt;Firebase&lt;/font&gt;" style="text;html=1;strokeColor=none;fillColor=none;align=center;verticalAlign=middle;whiteSpace=wrap;rounded=0;" vertex="1" parent="1">
          <mxGeometry x="1180" y="1050" width="180" height="60" as="geometry" />
        </mxCell>
        <mxCell id="3rXDstgyWlfkzFN-V7EH-6" value="" style="rounded=0;whiteSpace=wrap;html=1;" vertex="1" parent="1">
          <mxGeometry x="1090" y="70" width="360" height="310" as="geometry" />
        </mxCell>
        <mxCell id="3rXDstgyWlfkzFN-V7EH-8" value="&lt;font style=&quot;font-size: 20px&quot;&gt;API&lt;/font&gt;" style="text;html=1;strokeColor=none;fillColor=none;align=center;verticalAlign=middle;whiteSpace=wrap;rounded=0;" vertex="1" parent="1">
          <mxGeometry x="1180" y="410" width="180" height="60" as="geometry" />
        </mxCell>
        <mxCell id="3rXDstgyWlfkzFN-V7EH-13" value="" style="rounded=1;whiteSpace=wrap;html=1;" vertex="1" parent="1">
          <mxGeometry x="1110" y="90" width="150" height="60" as="geometry" />
        </mxCell>
        <mxCell id="3rXDstgyWlfkzFN-V7EH-14" value="" style="rounded=1;whiteSpace=wrap;html=1;" vertex="1" parent="1">
          <mxGeometry x="1280" y="90" width="150" height="60" as="geometry" />
        </mxCell>
        <mxCell id="3rXDstgyWlfkzFN-V7EH-15" value="" style="rounded=1;whiteSpace=wrap;html=1;" vertex="1" parent="1">
          <mxGeometry x="1110" y="190" width="320" height="60" as="geometry" />
        </mxCell>
        <mxCell id="3rXDstgyWlfkzFN-V7EH-16" value="" style="rounded=1;whiteSpace=wrap;html=1;" vertex="1" parent="1">
          <mxGeometry x="1110" y="290" width="150" height="60" as="geometry" />
        </mxCell>
        <mxCell id="3rXDstgyWlfkzFN-V7EH-17" value="" style="rounded=1;whiteSpace=wrap;html=1;" vertex="1" parent="1">
          <mxGeometry x="1280" y="290" width="150" height="60" as="geometry" />
        </mxCell>
        <mxCell id="3rXDstgyWlfkzFN-V7EH-18" value="" style="rounded=1;whiteSpace=wrap;html=1;" vertex="1" parent="1">
          <mxGeometry x="1110" y="620" width="320" height="100" as="geometry" />
        </mxCell>
        <mxCell id="3rXDstgyWlfkzFN-V7EH-19" value="" style="rounded=1;whiteSpace=wrap;html=1;" vertex="1" parent="1">
          <mxGeometry x="1110" y="750" width="320" height="110" as="geometry" />
        </mxCell>
        <mxCell id="3rXDstgyWlfkzFN-V7EH-20" value="" style="rounded=1;whiteSpace=wrap;html=1;" vertex="1" parent="1">
          <mxGeometry x="1110" y="900" width="320" height="100" as="geometry" />
        </mxCell>
        <mxCell id="3rXDstgyWlfkzFN-V7EH-21" value="&lt;font style=&quot;font-size: 24px&quot;&gt;Authentication&lt;/font&gt;" style="text;html=1;strokeColor=none;fillColor=none;align=center;verticalAlign=middle;whiteSpace=wrap;rounded=0;" vertex="1" parent="1">
          <mxGeometry x="1140" y="630" width="250" height="70" as="geometry" />
        </mxCell>
        <mxCell id="3rXDstgyWlfkzFN-V7EH-22" value="&lt;font style=&quot;font-size: 24px&quot;&gt;Cloud Firestore&lt;/font&gt;" style="text;html=1;strokeColor=none;fillColor=none;align=center;verticalAlign=middle;whiteSpace=wrap;rounded=0;" vertex="1" parent="1">
          <mxGeometry x="1145" y="770" width="250" height="70" as="geometry" />
        </mxCell>
        <mxCell id="3rXDstgyWlfkzFN-V7EH-23" value="&lt;font style=&quot;font-size: 24px&quot;&gt;Cloud Functions&lt;/font&gt;" style="text;html=1;strokeColor=none;fillColor=none;align=center;verticalAlign=middle;whiteSpace=wrap;rounded=0;" vertex="1" parent="1">
          <mxGeometry x="1145" y="915" width="250" height="70" as="geometry" />
        </mxCell>
        <mxCell id="3rXDstgyWlfkzFN-V7EH-24" value="&lt;font style=&quot;font-size: 18px&quot;&gt;Get Match Detail&lt;/font&gt;" style="text;html=1;strokeColor=none;fillColor=none;align=center;verticalAlign=middle;whiteSpace=wrap;rounded=0;" vertex="1" parent="1">
          <mxGeometry x="1120" y="95" width="130" height="50" as="geometry" />
        </mxCell>
        <mxCell id="3rXDstgyWlfkzFN-V7EH-25" value="&lt;font style=&quot;font-size: 18px&quot;&gt;Get Match Score&lt;/font&gt;" style="text;html=1;strokeColor=none;fillColor=none;align=center;verticalAlign=middle;whiteSpace=wrap;rounded=0;" vertex="1" parent="1">
          <mxGeometry x="1290" y="95" width="130" height="50" as="geometry" />
        </mxCell>
        <mxCell id="3rXDstgyWlfkzFN-V7EH-26" value="&lt;font style=&quot;font-size: 18px&quot;&gt;Get Player Info&lt;/font&gt;" style="text;html=1;strokeColor=none;fillColor=none;align=center;verticalAlign=middle;whiteSpace=wrap;rounded=0;" vertex="1" parent="1">
          <mxGeometry x="1120" y="295" width="130" height="50" as="geometry" />
        </mxCell>
        <mxCell id="3rXDstgyWlfkzFN-V7EH-27" value="&lt;font style=&quot;font-size: 18px&quot;&gt;Get Fantasy Score&lt;/font&gt;" style="text;html=1;strokeColor=none;fillColor=none;align=center;verticalAlign=middle;whiteSpace=wrap;rounded=0;" vertex="1" parent="1">
          <mxGeometry x="1290" y="295" width="130" height="50" as="geometry" />
        </mxCell>
        <mxCell id="3rXDstgyWlfkzFN-V7EH-28" value="&lt;font style=&quot;font-size: 18px&quot;&gt;Get Upcoming Matches&lt;/font&gt;" style="text;html=1;strokeColor=none;fillColor=none;align=center;verticalAlign=middle;whiteSpace=wrap;rounded=0;" vertex="1" parent="1">
          <mxGeometry x="1120" y="195" width="300" height="50" as="geometry" />
        </mxCell>
        <mxCell id="3rXDstgyWlfkzFN-V7EH-30" value="" style="endArrow=classic;html=1;entryX=-0.002;entryY=0.439;entryDx=0;entryDy=0;entryPerimeter=0;" edge="1" parent="1" target="3rXDstgyWlfkzFN-V7EH-6">
          <mxGeometry relative="1" as="geometry">
            <mxPoint x="545" y="420" as="sourcePoint" />
            <mxPoint x="950" y="600" as="targetPoint" />
          </mxGeometry>
        </mxCell>
        <mxCell id="3rXDstgyWlfkzFN-V7EH-31" value="Request" style="edgeLabel;resizable=0;html=1;align=center;verticalAlign=middle;fontSize=18;" connectable="0" vertex="1" parent="3rXDstgyWlfkzFN-V7EH-30">
          <mxGeometry relative="1" as="geometry" />
        </mxCell>
        <mxCell id="3rXDstgyWlfkzFN-V7EH-32" value="" style="endArrow=classic;html=1;fontSize=18;exitX=-0.005;exitY=0.602;exitDx=0;exitDy=0;exitPerimeter=0;entryX=1;entryY=0.5;entryDx=0;entryDy=0;" edge="1" parent="1" source="3rXDstgyWlfkzFN-V7EH-6" target="3rXDstgyWlfkzFN-V7EH-1">
          <mxGeometry relative="1" as="geometry">
            <mxPoint x="820" y="460" as="sourcePoint" />
            <mxPoint x="920" y="460" as="targetPoint" />
          </mxGeometry>
        </mxCell>
        <mxCell id="3rXDstgyWlfkzFN-V7EH-33" value="&lt;font style=&quot;font-size: 18px&quot;&gt;Response&lt;/font&gt;" style="edgeLabel;resizable=0;html=1;align=center;verticalAlign=middle;" connectable="0" vertex="1" parent="3rXDstgyWlfkzFN-V7EH-32">
          <mxGeometry relative="1" as="geometry" />
        </mxCell>
        <mxCell id="3rXDstgyWlfkzFN-V7EH-34" value="" style="rounded=0;whiteSpace=wrap;html=1;fontSize=18;" vertex="1" parent="1">
          <mxGeometry x="190" y="270" width="320" height="400" as="geometry" />
        </mxCell>
        <mxCell id="3rXDstgyWlfkzFN-V7EH-35" value="&lt;font style=&quot;font-size: 24px&quot;&gt;Flutter&lt;/font&gt;" style="text;html=1;strokeColor=none;fillColor=none;align=center;verticalAlign=middle;whiteSpace=wrap;rounded=0;fontSize=18;" vertex="1" parent="1">
          <mxGeometry x="285" y="600" width="130" height="70" as="geometry" />
        </mxCell>
        <mxCell id="3rXDstgyWlfkzFN-V7EH-36" value="HTTP" style="rounded=1;whiteSpace=wrap;html=1;fontSize=18;" vertex="1" parent="1">
          <mxGeometry x="210" y="290" width="130" height="60" as="geometry" />
        </mxCell>
        <mxCell id="3rXDstgyWlfkzFN-V7EH-37" value="Firestore" style="rounded=1;whiteSpace=wrap;html=1;fontSize=18;" vertex="1" parent="1">
          <mxGeometry x="360" y="290" width="130" height="60" as="geometry" />
        </mxCell>
        <mxCell id="3rXDstgyWlfkzFN-V7EH-38" value="Firebase Messaging" style="rounded=1;whiteSpace=wrap;html=1;fontSize=18;" vertex="1" parent="1">
          <mxGeometry x="210" y="370" width="280" height="60" as="geometry" />
        </mxCell>
        <mxCell id="3rXDstgyWlfkzFN-V7EH-39" value="Hive" style="rounded=1;whiteSpace=wrap;html=1;fontSize=18;" vertex="1" parent="1">
          <mxGeometry x="215" y="455" width="275" height="60" as="geometry" />
        </mxCell>
        <mxCell id="3rXDstgyWlfkzFN-V7EH-40" value="Provider" style="rounded=1;whiteSpace=wrap;html=1;fontSize=18;" vertex="1" parent="1">
          <mxGeometry x="215" y="540" width="275" height="60" as="geometry" />
        </mxCell>
      </root>
    </mxGraphModel>
  </diagram>
</mxfile>
